ffmpeg version 4.4.2-0ubuntu0.22.04.1 Copyright (c) 2000-2021 the FFmpeg developers
  built with gcc 11 (Ubuntu 11.2.0-19ubuntu1)
  configuration: --prefix=/usr --extra-version=0ubuntu0.22.04.1 --toolchain=hardened --libdir=/usr/lib/x86_64-linux-gnu --incdir=/usr/include/x86_64-linux-gnu --arch=amd64 --enable-gpl --disable-stripping --enable-gnutls --enable-ladspa --enable-libaom --enable-libass --enable-libbluray --enable-libbs2b --enable-libcaca --enable-libcdio --enable-libcodec2 --enable-libdav1d --enable-libflite --enable-libfontconfig --enable-libfreetype --enable-libfribidi --enable-libgme --enable-libgsm --enable-libjack --enable-libmp3lame --enable-libmysofa --enable-libopenjpeg --enable-libopenmpt --enable-libopus --enable-libpulse --enable-librabbitmq --enable-librubberband --enable-libshine --enable-libsnappy --enable-libsoxr --enable-libspeex --enable-libsrt --enable-libssh --enable-libtheora --enable-libtwolame --enable-libvidstab --enable-libvorbis --enable-libvpx --enable-libwebp --enable-libx265 --enable-libxml2 --enable-libxvid --enable-libzimg --enable-libzmq --enable-libzvbi --enable-lv2 --enable-omx --enable-openal --enable-opencl --enable-opengl --enable-sdl2 --enable-pocketsphinx --enable-librsvg --enable-libmfx --enable-libdc1394 --enable-libdrm --enable-libiec61883 --enable-chromaprint --enable-frei0r --enable-libx264 --enable-shared
  libavutil      56. 70.100 / 56. 70.100
  libavcodec     58.134.100 / 58.134.100
  libavformat    58. 76.100 / 58. 76.100
  libavdevice    58. 13.100 / 58. 13.100
  libavfilter     7.110.100 /  7.110.100
  libswscale      5.  9.100 /  5.  9.100
  libswresample   3.  9.100 /  3.  9.100
  libpostproc    55.  9.100 / 55.  9.100
Input #0, flv, from '/storage/32426326/20250617/32426326-20250617-142131-258.flv':
  Metadata:
    displayHeight   : 1440
    fps             : 60
    cdn_ip          : 156.59.188.242
    profile         : 
    Rawdata         : 
    displayWidth    : 2560
    encoder         : obs-output module (libobs version 31.0.2)
    level           : 
    Title           : 技术主播没有GG
    Artist          : 蓝音BuBuLine (32426326)
    Comment         : mikufans直播间 32426326 的直播录像
                    : 主播名: 蓝音BuBuLine
                    : 直播标题: 技术主播没有GG
                    : 直播分区: 单机游戏·主机游戏
                    : 录制时间: 2025-06-17T14:21:31.2915464+00:00
                    : 直播服务器:
                    : d1--ov-gotcha07b.bilivideo.com [156.59.188.242]
                    : 
                    : 使用 mikufans录播姬 录制 https://rec.danmuji.org
                    : 录播姬版本: 2.11.0
    RecordedBy      : BililiveRecorder mikufans录播姬
    RecordedFrom    : d1--ov-gotcha07b.bilivideo.com
    StreamServers   : d1--ov-gotcha07b.bilivideo.com [156.59.188.242]
    RecorderVersion : 2.11.0+Branch.tags-v2.11.0.Sha.d32ebb97483b1ae77acfc6dbcfef17bd64913ccd
    StartTime       : Tue, 17 Jun 2025 14:21:31 +0000
    RoomId          : 32426326
    ShortId         : 0
    Name            : 蓝音BuBuLine
    StreamTitle     : 技术主播没有GG
    AreaNameParent  : 单机游戏
    AreaNameChild   : 主机游戏
  Duration: 05:07:00.03, start: 0.035000, bitrate: 8862 kb/s
  Stream #0:0: Video: h264 (High), yuv420p(tv, bt709, progressive), 2560x1440 [SAR 1:1 DAR 16:9], 10240 kb/s, 60 fps, 60 tbr, 1k tbn, 120 tbc
  Stream #0:1: Audio: aac (LC), 48000 Hz, stereo, fltp, 196 kb/s
Stream mapping:
  Stream #0:0 -> #0:0 (h264 (native) -> png (native))
Press [q] to stop, [?] for help
Output #0, image2, to '/storage/32426326/20250617/32426326-20250617-142131-258.all.thumb.png':
  Metadata:
    displayHeight   : 1440
    fps             : 60
    cdn_ip          : 156.59.188.242
    profile         : 
    Rawdata         : 
    displayWidth    : 2560
    AreaNameChild   : 主机游戏
    level           : 
    Title           : 技术主播没有GG
    Artist          : 蓝音BuBuLine (32426326)
    Comment         : mikufans直播间 32426326 的直播录像
                    : 主播名: 蓝音BuBuLine
                    : 直播标题: 技术主播没有GG
                    : 直播分区: 单机游戏·主机游戏
                    : 录制时间: 2025-06-17T14:21:31.2915464+00:00
                    : 直播服务器:
                    : d1--ov-gotcha07b.bilivideo.com [156.59.188.242]
                    : 
                    : 使用 mikufans录播姬 录制 https://rec.danmuji.org
                    : 录播姬版本: 2.11.0
    RecordedBy      : BililiveRecorder mikufans录播姬
    RecordedFrom    : d1--ov-gotcha07b.bilivideo.com
    StreamServers   : d1--ov-gotcha07b.bilivideo.com [156.59.188.242]
    RecorderVersion : 2.11.0+Branch.tags-v2.11.0.Sha.d32ebb97483b1ae77acfc6dbcfef17bd64913ccd
    StartTime       : Tue, 17 Jun 2025 14:21:31 +0000
    RoomId          : 32426326
    ShortId         : 0
    Name            : 蓝音BuBuLine
    StreamTitle     : 技术主播没有GG
    AreaNameParent  : 单机游戏
    encoder         : Lavf58.76.100
  Stream #0:0: Video: png, rgb24(pc, gbr/bt709/bt709, progressive), 2560x1440 [SAR 1:1 DAR 16:9], q=2-31, 200 kb/s, 60 fps, 60 tbn
    Metadata:
      encoder         : Lavc58.134.100 png
frame=    1 fps=0.0 q=0.0 size=N/A time=00:00:00.00 bitrate=N/A speed=   0x    frame=    1 fps=0.0 q=-0.0 Lsize=N/A time=00:00:00.01 bitrate=N/A speed=0.0422x    
video:1593kB audio:0kB subtitle:0kB other streams:0kB global headers:0kB muxing overhead: unknown
ffmpeg version 4.4.2-0ubuntu0.22.04.1 Copyright (c) 2000-2021 the FFmpeg developers
  built with gcc 11 (Ubuntu 11.2.0-19ubuntu1)
  configuration: --prefix=/usr --extra-version=0ubuntu0.22.04.1 --toolchain=hardened --libdir=/usr/lib/x86_64-linux-gnu --incdir=/usr/include/x86_64-linux-gnu --arch=amd64 --enable-gpl --disable-stripping --enable-gnutls --enable-ladspa --enable-libaom --enable-libass --enable-libbluray --enable-libbs2b --enable-libcaca --enable-libcdio --enable-libcodec2 --enable-libdav1d --enable-libflite --enable-libfontconfig --enable-libfreetype --enable-libfribidi --enable-libgme --enable-libgsm --enable-libjack --enable-libmp3lame --enable-libmysofa --enable-libopenjpeg --enable-libopenmpt --enable-libopus --enable-libpulse --enable-librabbitmq --enable-librubberband --enable-libshine --enable-libsnappy --enable-libsoxr --enable-libspeex --enable-libsrt --enable-libssh --enable-libtheora --enable-libtwolame --enable-libvidstab --enable-libvorbis --enable-libvpx --enable-libwebp --enable-libx265 --enable-libxml2 --enable-libxvid --enable-libzimg --enable-libzmq --enable-libzvbi --enable-lv2 --enable-omx --enable-openal --enable-opencl --enable-opengl --enable-sdl2 --enable-pocketsphinx --enable-librsvg --enable-libmfx --enable-libdc1394 --enable-libdrm --enable-libiec61883 --enable-chromaprint --enable-frei0r --enable-libx264 --enable-shared
  libavutil      56. 70.100 / 56. 70.100
  libavcodec     58.134.100 / 58.134.100
  libavformat    58. 76.100 / 58. 76.100
  libavdevice    58. 13.100 / 58. 13.100
  libavfilter     7.110.100 /  7.110.100
  libswscale      5.  9.100 /  5.  9.100
  libswresample   3.  9.100 /  3.  9.100
  libpostproc    55.  9.100 / 55.  9.100
[flv @ 0x556e17b1afc0] Auto-inserting h264_mp4toannexb bitstream filter
Input #0, concat, from '/storage/32426326/20250617/32426326-20250617-142131-258.all.concat.txt':
  Duration: N/A, start: 0.000000, bitrate: 10436 kb/s
  Stream #0:0: Video: h264 (High), yuv420p(tv, bt709, progressive), 2560x1440 [SAR 1:1 DAR 16:9], 10240 kb/s, 60 fps, 60 tbr, 1k tbn, 120 tbc
  Stream #0:1: Audio: aac (LC), 48000 Hz, stereo, fltp, 196 kb/s
Output #0, flv, to '/storage/32426326/20250617/32426326-20250617-142131-258.all.flv':
  Metadata:
    encoder         : Lavf58.76.100
  Stream #0:0: Video: h264 (High) ([7][0][0][0] / 0x0007), yuv420p(tv, bt709, progressive), 2560x1440 [SAR 1:1 DAR 16:9], q=2-31, 10240 kb/s, 60 fps, 60 tbr, 1k tbn, 1k tbc
  Stream #0:1: Audio: aac (LC) ([10][0][0][0] / 0x000A), 48000 Hz, stereo, fltp, 196 kb/s
Stream mapping:
  Stream #0:0 -> #0:0 (copy)
  Stream #0:1 -> #0:1 (copy)
Press [q] to stop, [?] for help
frame=    1 fps=0.0 q=-1.0 size=       0kB time=00:00:00.00 bitrate=N/A speed=   0x    frame= 4515 fps=0.0 q=-1.0 size=   34304kB time=00:01:15.33 bitrate=3730.4kbits/s speed= 151x    frame= 6738 fps=6730 q=-1.0 size=   70912kB time=00:01:52.38 bitrate=5169.1kbits/s speed= 112x    frame= 8813 fps=5870 q=-1.0 size=  110080kB time=00:02:26.96 bitrate=6136.0kbits/s speed=97.9x    frame=10955 fps=5473 q=-1.0 size=  146944kB time=00:03:02.66 bitrate=6590.1kbits/s speed=91.3x    frame=12790 fps=5112 q=-1.0 size=  185088kB time=00:03:33.25 bitrate=7110.2kbits/s speed=85.2x    frame=14552 fps=4847 q=-1.0 size=  221696kB time=00:04:02.61 bitrate=7485.7kbits/s speed=80.8x    frame=16412 fps=4685 q=-1.0 size=  260352kB time=00:04:33.61 bitrate=7794.9kbits/s speed=78.1x    frame=18213 fps=4550 q=-1.0 size=  297984kB time=00:05:03.63 bitrate=8039.6kbits/s speed=75.9x    frame=19957 fps=4431 q=-1.0 size=  334080kB time=00:05:32.69 bitrate=8226.1kbits/s speed=73.9x    frame=21763 fps=4349 q=-1.0 size=  371712kB time=00:06:02.79 bitrate=8393.3kbits/s speed=72.5x    frame=23505 fps=4271 q=-1.0 size=  407552kB time=00:06:31.83 bitrate=8520.7kbits/s speed=71.2x    frame=25291 fps=4212 q=-1.0 size=  444928kB time=00:07:01.61 bitrate=8645.0kbits/s speed=70.2x    frame=27109 fps=4168 q=-1.0 size=  482560kB time=00:07:31.90 bitrate=8747.7kbits/s speed=69.5x    frame=28762 fps=4106 q=-1.0 size=  517120kB time=00:07:59.44 bitrate=8835.7kbits/s speed=68.5x    frame=30568 fps=4073 q=-1.0 size=  554496kB time=00:08:29.54 bitrate=8914.6kbits/s speed=67.9x    frame=32348 fps=4041 q=-1.0 size=  591616kB time=00:08:59.22 bitrate=8988.0kbits/s speed=67.4x    frame=34185 fps=4020 q=-1.0 size=  629760kB time=00:09:29.83 bitrate=9053.6kbits/s speed=  67x    frame=36000 fps=3997 q=-1.0 size=  667392kB time=00:10:00.08 bitrate=9110.9kbits/s speed=66.6x    frame=37835 fps=3980 q=-1.0 size=  705536kB time=00:10:30.66 bitrate=9164.5kbits/s speed=66.3x    frame=39901 fps=3988 q=-1.0 size=  744192kB time=00:11:05.09 bitrate=9166.2kbits/s speed=66.5x    frame=41887 fps=3987 q=-1.0 size=  784384kB time=00:11:38.19 bitrate=9203.2kbits/s speed=66.5x    frame=44032 fps=4000 q=-1.0 size=  819456kB time=00:12:13.95 bitrate=9146.3kbits/s speed=66.7x    frame=45828 fps=3983 q=-1.0 size=  856320kB time=00:12:43.88 bitrate=9183.3kbits/s speed=66.4x    frame=47588 fps=3963 q=-1.0 size=  892928kB time=00:13:13.21 bitrate=9221.8kbits/s speed=66.1x    frame=49315 fps=3943 q=-1.0 size=  928768kB time=00:13:41.99 bitrate=9256.1kbits/s speed=65.7x    frame=51034 fps=3923 q=-1.0 size=  964352kB time=00:14:10.64 bitrate=9287.0kbits/s speed=65.4x    frame=52821 fps=3910 q=-1.0 size= 1001728kB time=00:14:40.43 bitrate=9320.6kbits/s speed=65.2x    frame=54528 fps=3892 q=-1.0 size= 1037056kB time=00:15:08.88 bitrate=9347.3kbits/s speed=64.9x    frame=56328 fps=3882 q=-1.0 size= 1074688kB time=00:15:38.88 bitrate=9376.9kbits/s speed=64.7x    frame=58092 fps=3870 q=-1.0 size= 1111296kB time=00:16:08.28 bitrate=9402.0kbits/s speed=64.5x    frame=59895 fps=3862 q=-1.0 size= 1148928kB time=00:16:38.33 bitrate=9427.8kbits/s speed=64.4x    frame=61736 fps=3856 q=-1.0 size= 1186816kB time=00:17:09.01 bitrate=9448.3kbits/s speed=64.3x    frame=63365 fps=3838 q=-1.0 size= 1220608kB time=00:17:36.17 bitrate=9467.4kbits/s speed=  64x    frame=65151 fps=3830 q=-1.0 size= 1257728kB time=00:18:05.93 bitrate=9488.0kbits/s speed=63.8x    frame=67210 fps=3838 q=-1.0 size= 1295360kB time=00:18:40.24 bitrate=9472.5kbits/s speed=  64x    frame=69012 fps=3831 q=-1.0 size= 1332736kB time=00:19:10.29 bitrate=9491.3kbits/s speed=63.9x    frame=71304 fps=3852 q=-1.0 size= 1370624kB time=00:19:48.48 bitrate=9447.5kbits/s speed=64.2x    frame=73002 fps=3840 q=-1.0 size= 1405952kB time=00:20:16.79 bitrate=9465.5kbits/s speed=  64x    frame=74774 fps=3832 q=-1.0 size= 1442560kB time=00:20:46.31 bitrate=9481.9kbits/s speed=63.9x    frame=76570 fps=3826 q=-1.0 size= 1480192kB time=00:21:16.24 bitrate=9501.1kbits/s speed=63.8x    frame=78275 fps=3816 q=-1.0 size= 1515520kB time=00:21:44.66 bitrate=9516.0kbits/s speed=63.6x    frame=80045 fps=3809 q=-1.0 size= 1552128kB time=00:22:14.16 bitrate=9530.3kbits/s speed=63.5x    frame=81847 fps=3805 q=-1.0 size= 1589760kB time=00:22:44.19 bitrate=9546.5kbits/s speed=63.4x    frame=83574 fps=3797 q=-1.0 size= 1625600kB time=00:23:12.98 bitrate=9560.0kbits/s speed=63.3x    frame=85452 fps=3796 q=-1.0 size= 1664768kB time=00:23:44.28 bitrate=9575.2kbits/s speed=63.3x    frame=87218 fps=3790 q=-1.0 size= 1701376kB time=00:24:13.71 bitrate=9587.6kbits/s speed=63.2x    frame=88973 fps=3784 q=-1.0 size= 1737984kB time=00:24:42.96 bitrate=9600.7kbits/s speed=63.1x    frame=90729 fps=3778 q=-1.0 size= 1774336kB time=00:25:12.23 bitrate=9611.9kbits/s speed=  63x    frame=92521 fps=3774 q=-1.0 size= 1811712kB time=00:25:42.10 bitrate=9624.2kbits/s speed=62.9x    frame=94272 fps=3769 q=-1.0 size= 1847808kB time=00:26:11.28 bitrate=9633.7kbits/s speed=62.8x    frame=96046 fps=3764 q=-1.0 size= 1884928kB time=00:26:40.85 bitrate=9645.7kbits/s speed=62.7x    frame=97787 fps=3759 q=-1.0 size= 1921280kB time=00:27:09.86 bitrate=9656.7kbits/s speed=62.6x    frame=99846 fps=3766 q=-1.0 size= 1958656kB time=00:27:44.18 bitrate=9641.6kbits/s speed=62.8x    frame=101737 fps=3766 q=-1.0 size= 1997824kB time=00:28:15.69 bitrate=9651.6kbits/s speed=62.8x    frame=104068 fps=3782 q=-1.0 size= 2034944kB time=00:28:54.54 bitrate=9610.7kbits/s speed=  63x    frame=106706 fps=3809 q=-1.0 size= 2073088kB time=00:29:38.51 bitrate=9548.8kbits/s speed=63.5x    frame=108920 fps=3819 q=-1.0 size= 2110208kB time=00:30:15.42 bitrate=9522.2kbits/s speed=63.7x    frame=110642 fps=3813 q=-1.0 size= 2146048kB time=00:30:44.11 bitrate=9533.3kbits/s speed=63.6x    frame=112528 fps=3812 q=-1.0 size= 2185216kB time=00:31:15.54 bitrate=9544.6kbits/s speed=63.5x    frame=114301 fps=3808 q=-1.0 size= 2222336kB time=00:31:45.11 bitrate=9556.1kbits/s speed=63.5x    frame=116119 fps=3805 q=-1.0 size= 2260224kB time=00:32:15.39 bitrate=9566.9kbits/s speed=63.4x    frame=118040 fps=3805 q=-1.0 size= 2299648kB time=00:32:47.41 bitrate=9575.4kbits/s speed=63.4x    frame=120141 fps=3812 q=-1.0 size= 2336000kB time=00:33:22.43 bitrate=9556.6kbits/s speed=63.5x    frame=122235 fps=3817 q=-1.0 size= 2373376kB time=00:33:57.33 bitrate=9543.2kbits/s speed=63.6x    frame=124101 fps=3816 q=-1.0 size= 2412288kB time=00:34:28.43 bitrate=9553.8kbits/s speed=63.6x    frame=125947 fps=3814 q=-1.0 size= 2450432kB time=00:34:59.19 bitrate=9562.7kbits/s speed=63.6x    frame=127896 fps=3815 q=-1.0 size= 2490624kB time=00:35:31.69 bitrate=9571.4kbits/s speed=63.6x    frame=129692 fps=3812 q=-1.0 size= 2528000kB time=00:36:01.61 bitrate=9580.5kbits/s speed=63.5x    frame=131586 fps=3811 q=-1.0 size= 2567424kB time=00:36:33.18 bitrate=9589.9kbits/s speed=63.5x    frame=133404 fps=3809 q=-1.0 size= 2605056kB time=00:37:03.49 bitrate=9597.8kbits/s speed=63.5x    frame=135182 fps=3805 q=-1.0 size= 2642176kB time=00:37:33.11 bitrate=9606.6kbits/s speed=63.4x    frame=136987 fps=3802 q=-1.0 size= 2679552kB time=00:38:03.19 bitrate=9614.1kbits/s speed=63.4x    frame=138889 fps=3802 q=-1.0 size= 2718976kB time=00:38:34.90 bitrate=9621.9kbits/s speed=63.4x    frame=140535 fps=3795 q=-1.0 size= 2753280kB time=00:39:02.33 bitrate=9629.2kbits/s speed=63.3x    frame=142379 fps=3794 q=-1.0 size= 2791680kB time=00:39:33.07 bitrate=9637.0kbits/s speed=63.2x    frame=144054 fps=3788 q=-1.0 size= 2826240kB time=00:40:00.98 bitrate=9642.9kbits/s speed=63.1x    frame=146175 fps=3794 q=-1.0 size= 2864384kB time=00:40:36.33 bitrate=9631.3kbits/s speed=63.2x    frame=148331 fps=3801 q=-1.0 size= 2902784kB time=00:41:12.27 bitrate=9618.5kbits/s speed=63.3x    frame=150057 fps=3796 q=-1.0 size= 2938624kB time=00:41:41.03 bitrate=9625.3kbits/s speed=63.3x    frame=151929 fps=3796 q=-1.0 size= 2977024kB time=00:42:12.23 bitrate=9630.9kbits/s speed=63.3x    frame=153816 fps=3795 q=-1.0 size= 3016192kB time=00:42:43.69 bitrate=9637.9kbits/s speed=63.3x    frame=155634 fps=3793 q=-1.0 size= 3053824kB time=00:43:13.98 bitrate=9644.2kbits/s speed=63.2x    frame=157489 fps=3792 q=-1.0 size= 3092224kB time=00:43:44.89 bitrate=9650.5kbits/s speed=63.2x    frame=159351 fps=3792 q=-1.0 size= 3131136kB time=00:44:15.93 bitrate=9657.7kbits/s speed=63.2x    frame=161202 fps=3790 q=-1.0 size= 3169536kB time=00:44:46.78 bitrate=9663.9kbits/s speed=63.2x    frame=162965 fps=3787 q=-1.0 size= 3206400kB time=00:45:16.16 bitrate=9670.6kbits/s speed=63.1x    frame=164736 fps=3785 q=-1.0 size= 3243008kB time=00:45:45.68 bitrate=9675.8kbits/s speed=63.1x    frame=166493 fps=3781 q=-1.0 size= 3279616kB time=00:46:14.96 bitrate=9681.8kbits/s speed=  63x    frame=168368 fps=3781 q=-1.0 size= 3318528kB time=00:46:46.21 bitrate=9687.6kbits/s speed=  63x    frame=170131 fps=3778 q=-1.0 size= 3355136kB time=00:47:15.60 bitrate=9692.9kbits/s speed=  63x    frame=172046 fps=3779 q=-1.0 size= 3395072kB time=00:47:47.52 bitrate=9699.1kbits/s speed=  63x    frame=173899 fps=3778 q=-1.0 size= 3433472kB time=00:48:18.39 bitrate=9704.3kbits/s speed=  63x    frame=175675 fps=3775 q=-1.0 size= 3470592kB time=00:48:48.00 bitrate=9710.1kbits/s speed=62.9x    frame=177533 fps=3775 q=-1.0 size= 3509248kB time=00:49:18.96 bitrate=9715.5kbits/s speed=62.9x    frame=179407 fps=3774 q=-1.0 size= 3547904kB time=00:49:50.21 bitrate=9719.9kbits/s speed=62.9x    frame=181258 fps=3774 q=-1.0 size= 3586560kB time=00:50:21.05 bitrate=9725.4kbits/s speed=62.9x    frame=183538 fps=3782 q=-1.0 size= 3627520kB time=00:50:59.04 bitrate=9714.3kbits/s speed=  63x    frame=185374 fps=3780 q=-1.0 size= 3665664kB time=00:51:29.64 bitrate=9719.3kbits/s speed=  63x    frame=187621 fps=3788 q=-1.0 size= 3704832kB time=00:52:07.10 bitrate=9705.5kbits/s speed=63.1x    frame=189527 fps=3788 q=-1.0 size= 3744768kB time=00:52:38.86 bitrate=9711.4kbits/s speed=63.1x    frame=191458 fps=3789 q=-1.0 size= 3784704kB time=00:53:11.04 bitrate=9716.0kbits/s speed=63.1x    frame=193568 fps=3793 q=-1.0 size= 3828736kB time=00:53:46.21 bitrate=9721.9kbits/s speed=63.2x    frame=195846 fps=3800 q=-1.0 size= 3875840kB time=00:54:24.19 bitrate=9727.0kbits/s speed=63.3x    frame=197661 fps=3799 q=-1.0 size= 3913728kB time=00:54:54.44 bitrate=9731.9kbits/s speed=63.3x    frame=199671 fps=3801 q=-1.0 size= 3955456kB time=00:55:27.93 bitrate=9736.7kbits/s speed=63.3x    frame=201513 fps=3799 q=-1.0 size= 3993600kB time=00:55:58.63 bitrate=9740.7kbits/s speed=63.3x    frame=203438 fps=3800 q=-1.0 size= 4033536kB time=00:56:30.71 bitrate=9745.1kbits/s speed=63.3x    frame=205289 fps=3799 q=-1.0 size= 4072192kB time=00:57:01.57 bitrate=9749.7kbits/s speed=63.3x    frame=207039 fps=3796 q=-1.0 size= 4108544kB time=00:57:30.73 bitrate=9753.6kbits/s speed=63.3x    frame=208971 fps=3797 q=-1.0 size= 4148736kB time=00:58:02.94 bitrate=9758.0kbits/s speed=63.3x    frame=210957 fps=3798 q=-1.0 size= 4189696kB time=00:58:36.03 bitrate=9761.6kbits/s speed=63.3x    frame=212891 fps=3799 q=-1.0 size= 4229888kB time=00:59:08.26 bitrate=9765.7kbits/s speed=63.3x    frame=214840 fps=3800 q=-1.0 size= 4270592kB time=00:59:40.74 bitrate=9770.2kbits/s speed=63.3x    frame=216745 fps=3800 q=-1.0 size= 4310272kB time=01:00:12.49 bitrate=9774.3kbits/s speed=63.3x    frame=218899 fps=3804 q=-1.0 size= 4349184kB time=01:00:48.39 bitrate=9765.5kbits/s speed=63.4x    frame=220979 fps=3807 q=-1.0 size= 4391680kB time=01:01:23.07 bitrate=9768.1kbits/s speed=63.5x    frame=223335 fps=3815 q=-1.0 size= 4430848kB time=01:02:02.33 bitrate=9751.3kbits/s speed=63.6x    frame=225320 fps=3816 q=-1.0 size= 4471808kB time=01:02:35.41 bitrate=9754.7kbits/s speed=63.6x    frame=227300 fps=3818 q=-1.0 size= 4512768kB time=01:03:08.41 bitrate=9758.3kbits/s speed=63.6x    frame=229228 fps=3818 q=-1.0 size= 4552960kB time=01:03:40.54 bitrate=9762.4kbits/s speed=63.6x    frame=231263 fps=3820 q=-1.0 size= 4595200kB time=01:04:14.46 bitrate=9766.3kbits/s speed=63.7x    frame=233172 fps=3820 q=-1.0 size= 4635136kB time=01:04:46.29 bitrate=9770.5kbits/s speed=63.7x    frame=234941 fps=3818 q=-1.0 size= 4671744kB time=01:05:15.76 bitrate=9773.6kbits/s speed=63.6x    frame=236805 fps=3817 q=-1.0 size= 4710400kB time=01:05:46.83 bitrate=9776.8kbits/s speed=63.6x    frame=238646 fps=3816 q=-1.0 size= 4748544kB time=01:06:17.51 bitrate=9780.0kbits/s speed=63.6x    frame=240944 fps=3822 q=-1.0 size= 4789504kB time=01:06:55.81 bitrate=9770.3kbits/s speed=63.7x    frame=243273 fps=3829 q=-1.0 size= 4830976kB time=01:07:34.63 bitrate=9760.5kbits/s speed=63.8x    frame=245021 fps=3826 q=-1.0 size= 4867328kB time=01:08:03.76 bitrate=9763.8kbits/s speed=63.8x    frame=246996 fps=3827 q=-1.0 size= 4908288kB time=01:08:36.69 bitrate=9767.2kbits/s speed=63.8x    frame=248921 fps=3827 q=-1.0 size= 4948224kB time=01:09:08.76 bitrate=9770.6kbits/s speed=63.8x    frame=250705 fps=3825 q=-1.0 size= 4985344kB time=01:09:38.49 bitrate=9773.8kbits/s speed=63.8x    frame=252655 fps=3826 q=-1.0 size= 5025792kB time=01:10:11.01 bitrate=9777.1kbits/s speed=63.8x    frame=254505 fps=3825 q=-1.0 size= 5064448kB time=01:10:41.83 bitrate=9780.7kbits/s speed=63.7x    frame=256306 fps=3823 q=-1.0 size= 5101824kB time=01:11:11.84 bitrate=9783.6kbits/s speed=63.7x    frame=258256 fps=3824 q=-1.0 size= 5142528kB time=01:11:44.34 bitrate=9787.2kbits/s speed=63.7x    frame=260051 fps=3822 q=-1.0 size= 5179648kB time=01:12:14.26 bitrate=9789.8kbits/s speed=63.7x    frame=261910 fps=3821 q=-1.0 size= 5218304kB time=01:12:45.25 bitrate=9792.9kbits/s speed=63.7x    frame=263862 fps=3822 q=-1.0 size= 5258752kB time=01:13:17.78 bitrate=9795.8kbits/s speed=63.7x    frame=265558 fps=3818 q=-1.0 size= 5293824kB time=01:13:46.04 bitrate=9798.1kbits/s speed=63.6x    frame=267488 fps=3819 q=-1.0 size= 5334016kB time=01:14:18.21 bitrate=9801.3kbits/s speed=63.6x    frame=269437 fps=3819 q=-1.0 size= 5374464kB time=01:14:50.71 bitrate=9804.2kbits/s speed=63.7x    frame=271366 fps=3820 q=-1.0 size= 5414656kB time=01:15:22.86 bitrate=9807.3kbits/s speed=63.7x    frame=273330 fps=3820 q=-1.0 size= 5455360kB time=01:15:55.58 bitrate=9810.0kbits/s speed=63.7x    frame=275169 fps=3819 q=-1.0 size= 5492480kB time=01:16:26.23 bitrate=9810.8kbits/s speed=63.7x    frame=277425 fps=3824 q=-1.0 size= 5534976kB time=01:17:03.83 bitrate=9806.3kbits/s speed=63.7x    frame=279765 fps=3830 q=-1.0 size= 5574912kB time=01:17:42.83 bitrate=9794.4kbits/s speed=63.8x    frame=281559 fps=3828 q=-1.0 size= 5612288kB time=01:18:12.73 bitrate=9797.3kbits/s speed=63.8x    frame=283384 fps=3827 q=-1.0 size= 5650176kB time=01:18:43.14 bitrate=9799.9kbits/s speed=63.8x    frame=285727 fps=3833 q=-1.0 size= 5698816kB time=01:19:22.19 bitrate=9803.2kbits/s speed=63.9x    frame=287606 fps=3832 q=-1.0 size= 5737728kB time=01:19:53.51 bitrate=9805.6kbits/s speed=63.9x    frame=289766 fps=3835 q=-1.0 size= 5783040kB time=01:20:29.51 bitrate=9809.4kbits/s speed=63.9x    frame=291658 fps=3835 q=-1.0 size= 5821952kB time=01:21:01.05 bitrate=9811.3kbits/s speed=63.9x    frame=293809 fps=3838 q=-1.0 size= 5866752kB time=01:21:36.89 bitrate=9814.5kbits/s speed=  64x    frame=295981 fps=3841 q=-1.0 size= 5911808kB time=01:22:13.10 bitrate=9817.3kbits/s speed=  64x    frame=298122 fps=3844 q=-1.0 size= 5956608kB time=01:22:48.78 bitrate=9820.6kbits/s speed=64.1x    frame=300383 fps=3848 q=-1.0 size= 6003200kB time=01:23:26.46 bitrate=9822.9kbits/s speed=64.1x    frame=302420 fps=3850 q=-1.0 size= 6045696kB time=01:24:00.41 bitrate=9825.8kbits/s speed=64.2x    frame=304644 fps=3854 q=-1.0 size= 6092032kB time=01:24:37.48 bitrate=9828.9kbits/s speed=64.2x    frame=307206 fps=3862 q=-1.0 size= 6139648kB time=01:25:20.19 bitrate=9823.1kbits/s speed=64.4x    frame=309458 fps=3866 q=-1.0 size= 6185472kB time=01:25:57.71 bitrate=9824.4kbits/s speed=64.4x    frame=312272 fps=3877 q=-1.0 size= 6229504kB time=01:26:44.61 bitrate=9805.2kbits/s speed=64.6x    frame=314486 fps=3880 q=-1.0 size= 6275072kB time=01:27:21.51 bitrate=9807.4kbits/s speed=64.7x    frame=316622 fps=3882 q=-1.0 size= 6319616kB time=01:27:57.12 bitrate=9810.3kbits/s speed=64.7x    frame=318465 fps=3881 q=-1.0 size= 6357504kB time=01:28:27.83 bitrate=9812.0kbits/s speed=64.7x    frame=320401 fps=3881 q=-1.0 size= 6397440kB time=01:29:00.09 bitrate=9814.0kbits/s speed=64.7x    frame=322089 fps=3878 q=-1.0 size= 6432512kB time=01:29:28.23 bitrate=9816.1kbits/s speed=64.6x    frame=323967 fps=3877 q=-1.0 size= 6471424kB time=01:29:59.53 bitrate=9818.2kbits/s speed=64.6x    frame=325793 fps=3876 q=-1.0 size= 6509568kB time=01:30:29.96 bitrate=9820.8kbits/s speed=64.6x    frame=327636 fps=3875 q=-1.0 size= 6547968kB time=01:31:00.68 bitrate=9823.1kbits/s speed=64.6x    frame=329800 fps=3877 q=-1.0 size= 6592768kB time=01:31:36.74 bitrate=9825.4kbits/s speed=64.6x    frame=331514 fps=3875 q=-1.0 size= 6628352kB time=01:32:05.31 bitrate=9827.4kbits/s speed=64.6x    frame=333405 fps=3874 q=-1.0 size= 6668032kB time=01:32:36.84 bitrate=9830.1kbits/s speed=64.6x    frame=337123 fps=3895 q=-1.0 size= 6708736kB time=01:33:38.79 bitrate=9781.1kbits/s speed=64.9x    frame=339121 fps=3895 q=-1.0 size= 6749184kB time=01:34:12.09 bitrate=9782.1kbits/s speed=64.9x    frame=341152 fps=3896 q=-1.0 size= 6791936kB time=01:34:45.94 bitrate=9785.4kbits/s speed=64.9x    frame=343131 fps=3897 q=-1.0 size= 6832896kB time=01:35:18.93 bitrate=9787.7kbits/s speed=64.9x    frame=344923 fps=3895 q=-1.0 size= 6870272kB time=01:35:48.79 bitrate=9790.1kbits/s speed=64.9x    frame=346895 fps=3895 q=-1.0 size= 6911488kB time=01:36:21.67 bitrate=9792.8kbits/s speed=64.9x    frame=348785 fps=3894 q=-1.0 size= 6950656kB time=01:36:53.16 bitrate=9795.0kbits/s speed=64.9x    frame=350780 fps=3895 q=-1.0 size= 6991872kB time=01:37:26.42 bitrate=9797.0kbits/s speed=64.9x    frame=352778 fps=3895 q=-1.0 size= 7033600kB time=01:37:59.71 bitrate=9799.7kbits/s speed=64.9x    frame=354743 fps=3896 q=-1.0 size= 7074304kB time=01:38:32.47 bitrate=9801.8kbits/s speed=64.9x    frame=356753 fps=3896 q=-1.0 size= 7116288kB time=01:39:05.96 bitrate=9804.4kbits/s speed=64.9x    frame=358691 fps=3896 q=-1.0 size= 7156480kB time=01:39:38.26 bitrate=9806.5kbits/s speed=64.9x    frame=360522 fps=3895 q=-1.0 size= 7194624kB time=01:40:08.78 bitrate=9808.7kbits/s speed=64.9x    frame=362492 fps=3895 q=-1.0 size= 7235584kB time=01:40:41.61 bitrate=9810.9kbits/s speed=64.9x    frame=364340 fps=3894 q=-1.0 size= 7273984kB time=01:41:12.42 bitrate=9813.0kbits/s speed=64.9x    frame=366293 fps=3894 q=-1.0 size= 7314688kB time=01:41:44.96 bitrate=9815.3kbits/s speed=64.9x    frame=368393 fps=3896 q=-1.0 size= 7356416kB time=01:42:19.96 bitrate=9815.0kbits/s speed=64.9x    frame=370263 fps=3895 q=-1.0 size= 7395328kB time=01:42:51.13 bitrate=9817.1kbits/s speed=64.9x    frame=372214 fps=3895 q=-1.0 size= 7436032kB time=01:43:23.65 bitrate=9819.4kbits/s speed=64.9x    frame=374139 fps=3895 q=-1.0 size= 7475968kB time=01:43:55.73 bitrate=9821.3kbits/s speed=64.9x    frame=375900 fps=3893 q=-1.0 size= 7512832kB time=01:44:25.08 bitrate=9823.5kbits/s speed=64.9x    frame=377891 fps=3893 q=-1.0 size= 7554304kB time=01:44:58.26 bitrate=9825.7kbits/s speed=64.9x    frame=379937 fps=3894 q=-1.0 size= 7596544kB time=01:45:32.36 bitrate=9827.4kbits/s speed=64.9x    frame=381661 fps=3892 q=-1.0 size= 7632640kB time=01:46:01.09 bitrate=9829.5kbits/s speed=64.9x    frame=383603 fps=3892 q=-1.0 size= 7672832kB time=01:46:33.46 bitrate=9831.3kbits/s speed=64.9x    frame=385481 fps=3891 q=-1.0 size= 7711744kB time=01:47:04.77 bitrate=9833.0kbits/s speed=64.9x    frame=387505 fps=3892 q=-1.0 size= 7753984kB time=01:47:38.49 bitrate=9835.2kbits/s speed=64.9x    frame=389456 fps=3892 q=-1.0 size= 7794688kB time=01:48:11.01 bitrate=9837.3kbits/s speed=64.9x    frame=391258 fps=3890 q=-1.0 size= 7832064kB time=01:48:41.04 bitrate=9839.0kbits/s speed=64.8x    frame=393215 fps=3891 q=-1.0 size= 7872768kB time=01:49:13.66 bitrate=9840.9kbits/s speed=64.8x    frame=395208 fps=3891 q=-1.0 size= 7914240kB time=01:49:46.88 bitrate=9842.8kbits/s speed=64.9x    frame=396900 fps=3888 q=-1.0 size= 7949568kB time=01:50:15.08 bitrate=9844.6kbits/s speed=64.8x    frame=398921 fps=3889 q=-1.0 size= 7991552kB time=01:50:48.76 bitrate=9846.5kbits/s speed=64.8x    frame=400855 fps=3889 q=-1.0 size= 8030976kB time=01:51:20.99 bitrate=9847.3kbits/s speed=64.8x    frame=402689 fps=3888 q=-1.0 size= 8069120kB time=01:51:51.56 bitrate=9849.0kbits/s speed=64.8x    frame=404700 fps=3889 q=-1.0 size= 8110848kB time=01:52:25.08 bitrate=9850.7kbits/s speed=64.8x    frame=406548 fps=3888 q=-1.0 size= 8149248kB time=01:52:55.89 bitrate=9852.4kbits/s speed=64.8x    frame=408262 fps=3885 q=-1.0 size= 8184832kB time=01:53:24.46 bitrate=9853.9kbits/s speed=64.8x    frame=410075 fps=3884 q=-1.0 size= 8222720kB time=01:53:54.66 bitrate=9855.7kbits/s speed=64.7x    frame=412043 fps=3884 q=-1.0 size= 8263680kB time=01:54:27.46 bitrate=9857.5kbits/s speed=64.7x    frame=414025 fps=3885 q=-1.0 size= 8304896kB time=01:55:00.50 bitrate=9859.2kbits/s speed=64.7x    frame=416005 fps=3885 q=-1.0 size= 8346112kB time=01:55:33.49 bitrate=9861.0kbits/s speed=64.8x    frame=417955 fps=3885 q=-1.0 size= 8386560kB time=01:56:05.99 bitrate=9862.6kbits/s speed=64.8x    frame=419714 fps=3883 q=-1.0 size= 8423168kB time=01:56:35.31 bitrate=9864.1kbits/s speed=64.7x    frame=421663 fps=3884 q=-1.0 size= 8463616kB time=01:57:07.79 bitrate=9865.7kbits/s speed=64.7x    frame=423484 fps=3882 q=-1.0 size= 8501504kB time=01:57:38.15 bitrate=9867.2kbits/s speed=64.7x    frame=425390 fps=3882 q=-1.0 size= 8541184kB time=01:58:09.91 bitrate=9868.9kbits/s speed=64.7x    frame=427347 fps=3882 q=-1.0 size= 8581888kB time=01:58:42.53 bitrate=9870.5kbits/s speed=64.7x    frame=429190 fps=3881 q=-1.0 size= 8620288kB time=01:59:13.26 bitrate=9872.1kbits/s speed=64.7x    frame=431182 fps=3882 q=-1.0 size= 8661760kB time=01:59:46.44 bitrate=9873.7kbits/s speed=64.7x    frame=433224 fps=3883 q=-1.0 size= 8703232kB time=02:00:20.48 bitrate=9874.3kbits/s speed=64.7x    frame=435158 fps=3883 q=-1.0 size= 8743680kB time=02:00:52.71 bitrate=9876.1kbits/s speed=64.7x    frame=437157 fps=3883 q=-1.0 size= 8785408kB time=02:01:26.03 bitrate=9877.8kbits/s speed=64.7x    frame=438989 fps=3882 q=-1.0 size= 8823296kB time=02:01:56.56 bitrate=9879.0kbits/s speed=64.7x    frame=440917 fps=3882 q=-1.0 size= 8863744kB time=02:02:28.69 bitrate=9880.9kbits/s speed=64.7x    frame=442889 fps=3882 q=-1.0 size= 8904448kB time=02:03:01.56 bitrate=9882.1kbits/s speed=64.7x    frame=444687 fps=3881 q=-1.0 size= 8941824kB time=02:03:31.54 bitrate=9883.4kbits/s speed=64.7x    frame=446472 fps=3880 q=-1.0 size= 8978944kB time=02:04:01.28 bitrate=9884.8kbits/s speed=64.7x    frame=448229 fps=3878 q=-1.0 size= 9015552kB time=02:04:30.57 bitrate=9886.2kbits/s speed=64.6x    frame=449914 fps=3876 q=-1.0 size= 9050624kB time=02:04:58.64 bitrate=9887.5kbits/s speed=64.6x    frame=451655 fps=3874 q=-1.0 size= 9086976kB time=02:05:27.66 bitrate=9888.9kbits/s speed=64.6x    frame=453563 fps=3874 q=-1.0 size= 9126400kB time=02:05:59.46 bitrate=9890.0kbits/s speed=64.6x    frame=455416 fps=3873 q=-1.0 size= 9165056kB time=02:06:30.35 bitrate=9891.5kbits/s speed=64.6x    frame=457494 fps=3874 q=-1.0 size= 9208064kB time=02:07:04.98 bitrate=9892.8kbits/s speed=64.6x    frame=459429 fps=3874 q=-1.0 size= 9248512kB time=02:07:37.23 bitrate=9894.4kbits/s speed=64.6x    frame=461514 fps=3876 q=-1.0 size= 9291776kB time=02:08:11.98 bitrate=9895.8kbits/s speed=64.6x    frame=463625 fps=3877 q=-1.0 size= 9335552kB time=02:08:47.17 bitrate=9897.1kbits/s speed=64.6x    frame=465428 fps=3876 q=-1.0 size= 9373184kB time=02:09:17.22 bitrate=9898.5kbits/s speed=64.6x    frame=468511 fps=3885 q=-1.0 size= 9414400kB time=02:10:08.59 bitrate=9876.6kbits/s speed=64.8x    frame=471483 fps=3894 q=-1.0 size= 9455616kB time=02:10:58.13 bitrate=9857.4kbits/s speed=64.9x    frame=474268 fps=3901 q=-1.0 size= 9494272kB time=02:11:44.55 bitrate=9839.5kbits/s speed=  65x    frame=477472 fps=3911 q=-1.0 size= 9536000kB time=02:12:37.94 bitrate=9816.5kbits/s speed=65.2x    frame=480015 fps=3916 q=-1.0 size= 9575168kB time=02:13:20.34 bitrate=9804.6kbits/s speed=65.3x    frame=482162 fps=3917 q=-1.0 size= 9614080kB time=02:13:56.11 bitrate=9800.6kbits/s speed=65.3x    frame=484404 fps=3920 q=-1.0 size= 9656576kB time=02:14:33.48 bitrate=9798.3kbits/s speed=65.3x    frame=486564 fps=3921 q=-1.0 size= 9694720kB time=02:15:09.48 bitrate=9793.4kbits/s speed=65.4x    frame=488892 fps=3924 q=-1.0 size= 9736960kB time=02:15:48.28 bitrate=9789.2kbits/s speed=65.4x    frame=491320 fps=3928 q=-1.0 size= 9779456kB time=02:16:28.75 bitrate=9783.3kbits/s speed=65.5x    frame=493629 fps=3931 q=-1.0 size= 9818880kB time=02:17:07.24 bitrate=9776.8kbits/s speed=65.5x    frame=496003 fps=3934 q=-1.0 size= 9862144kB time=02:17:46.79 bitrate=9772.9kbits/s speed=65.6x    frame=499670 fps=3947 q=-1.0 size= 9900800kB time=02:18:47.91 bitrate=9739.2kbits/s speed=65.8x    frame=502232 fps=3952 q=-1.0 size= 9938944kB time=02:19:30.62 bitrate=9726.9kbits/s speed=65.9x    frame=504704 fps=3956 q=-1.0 size= 9981696kB time=02:20:11.82 bitrate=9720.9kbits/s speed=65.9x    frame=507053 fps=3959 q=-1.0 size=10022912kB time=02:20:50.96 bitrate=9715.8kbits/s speed=  66x    frame=509458 fps=3962 q=-1.0 size=10064640kB time=02:21:31.04 bitrate=9710.2kbits/s speed=  66x    frame=511807 fps=3965 q=-1.0 size=10106112kB time=02:22:10.19 bitrate=9705.4kbits/s speed=66.1x    frame=515244 fps=3976 q=-1.0 size=10144000kB time=02:23:07.48 bitrate=9676.8kbits/s speed=66.3x    frame=518299 fps=3984 q=-1.0 size=10185216kB time=02:23:58.40 bitrate=9658.9kbits/s speed=66.4x    frame=520331 fps=3985 q=-1.0 size=10224384kB time=02:24:32.27 bitrate=9658.1kbits/s speed=66.4x    frame=522339 fps=3985 q=-1.0 size=10264832kB time=02:25:05.73 bitrate=9659.1kbits/s speed=66.4x    frame=524302 fps=3984 q=-1.0 size=10305792kB time=02:25:38.44 bitrate=9661.3kbits/s speed=66.4x    frame=526337 fps=3985 q=-1.0 size=10345216kB time=02:26:12.37 bitrate=9660.8kbits/s speed=66.4x    frame=528410 fps=3985 q=-1.0 size=10387456kB time=02:26:46.91 bitrate=9662.2kbits/s speed=66.4x    frame=530571 fps=3987 q=-1.0 size=10428416kB time=02:27:22.94 bitrate=9660.8kbits/s speed=66.4x    frame=532552 fps=3986 q=-1.0 size=10466560kB time=02:27:55.94 bitrate=9660.0kbits/s speed=66.4x    frame=534721 fps=3988 q=-1.0 size=10508032kB time=02:28:32.10 bitrate=9659.0kbits/s speed=66.5x    frame=536855 fps=3989 q=-1.0 size=10548480kB time=02:29:07.67 bitrate=9657.6kbits/s speed=66.5x    frame=539672 fps=3995 q=-1.0 size=10590208kB time=02:29:54.62 bitrate=9645.2kbits/s speed=66.6x    frame=542340 fps=4000 q=-1.0 size=10633728kB time=02:30:39.08 bitrate=9637.2kbits/s speed=66.7x    frame=545416 fps=4008 q=-1.0 size=10670848kB time=02:31:30.34 bitrate=9616.3kbits/s speed=66.8x    frame=548269 fps=4014 q=-1.0 size=10712576kB time=02:32:17.90 bitrate=9603.7kbits/s speed=66.9x    frame=550611 fps=4016 q=-1.0 size=10754304kB time=02:32:56.94 bitrate=9600.1kbits/s speed=66.9x    frame=553115 fps=4020 q=-1.0 size=10791936kB time=02:33:38.66 bitrate=9590.1kbits/s speed=  67x    frame=555179 fps=4020 q=-1.0 size=10832896kB time=02:34:13.06 bitrate=9590.7kbits/s speed=  67x    frame=557534 fps=4023 q=-1.0 size=10875904kB time=02:34:52.31 bitrate=9588.1kbits/s speed=  67x    frame=559396 fps=4022 q=-1.0 size=10912512kB time=02:35:23.35 bitrate=9588.3kbits/s speed=  67x    frame=565093 fps=4048 q=-1.0 size=10951936kB time=02:36:58.29 bitrate=9526.0kbits/s speed=67.5x    frame=567964 fps=4054 q=-1.0 size=10991104kB time=02:37:46.14 bitrate=9511.7kbits/s speed=67.6x    frame=570243 fps=4056 q=-1.0 size=11033088kB time=02:38:24.13 bitrate=9509.9kbits/s speed=67.6x    frame=572696 fps=4059 q=-1.0 size=11073792kB time=02:39:05.01 bitrate=9504.1kbits/s speed=67.6x    frame=574656 fps=4058 q=-1.0 size=11110656kB time=02:39:37.68 bitrate=9503.2kbits/s speed=67.6x    frame=576791 fps=4059 q=-1.0 size=11150336kB time=02:40:13.26 bitrate=9501.8kbits/s speed=67.7x    frame=578967 fps=4060 q=-1.0 size=11191552kB time=02:40:49.53 bitrate=9501.1kbits/s speed=67.7x    frame=581180 fps=4061 q=-1.0 size=11227648kB time=02:41:26.42 bitrate=9495.4kbits/s speed=67.7x    frame=583437 fps=4063 q=-1.0 size=11268096kB time=02:42:04.03 bitrate=9492.8kbits/s speed=67.7x    frame=586134 fps=4068 q=-1.0 size=11306240kB time=02:42:48.98 bitrate=9481.1kbits/s speed=67.8x    frame=589312 fps=4076 q=-1.0 size=11347968kB time=02:43:41.94 bitrate=9464.8kbits/s speed=67.9x    frame=591340 fps=4075 q=-1.0 size=11388160kB time=02:44:15.74 bitrate=9465.7kbits/s speed=67.9x    frame=593265 fps=4075 q=-1.0 size=11426816kB time=02:44:47.83 bitrate=9467.0kbits/s speed=67.9x    frame=595151 fps=4074 q=-1.0 size=11464704kB time=02:45:19.26 bitrate=9468.3kbits/s speed=67.9x    frame=597756 fps=4077 q=-1.0 size=11504896kB time=02:46:02.69 bitrate=9460.1kbits/s speed=  68x    frame=599645 fps=4076 q=-1.0 size=11539968kB time=02:46:34.17 bitrate=9459.0kbits/s speed=67.9x    frame=601646 fps=4076 q=-1.0 size=11579648kB time=02:47:07.51 bitrate=9460.0kbits/s speed=67.9x    frame=603802 fps=4077 q=-1.0 size=11620096kB time=02:47:43.44 bitrate=9459.2kbits/s speed=  68x    frame=605731 fps=4076 q=-1.0 size=11656448kB time=02:48:15.59 bitrate=9458.5kbits/s speed=67.9x    frame=607849 fps=4077 q=-1.0 size=11696384kB time=02:48:50.89 bitrate=9457.9kbits/s speed=67.9x    frame=609946 fps=4077 q=-1.0 size=11735552kB time=02:49:25.84 bitrate=9456.9kbits/s speed=  68x    frame=611838 fps=4076 q=-1.0 size=11772928kB time=02:49:57.38 bitrate=9457.7kbits/s speed=67.9x    frame=613778 fps=4075 q=-1.0 size=11811072kB time=02:50:29.71 bitrate=9458.4kbits/s speed=67.9x    frame=615550 fps=4074 q=-1.0 size=11847936kB time=02:50:59.24 bitrate=9460.6kbits/s speed=67.9x    frame=617256 fps=4072 q=-1.0 size=11883520kB time=02:51:27.68 bitrate=9462.8kbits/s speed=67.9x    frame=619039 fps=4070 q=-1.0 size=11919616kB time=02:51:57.39 bitrate=9464.2kbits/s speed=67.8x    frame=621165 fps=4070 q=-1.0 size=11952640kB time=02:52:32.83 bitrate=9457.9kbits/s speed=67.8x    frame=623825 fps=4075 q=-1.0 size=11989248kB time=02:53:17.16 bitrate=9446.4kbits/s speed=67.9x    frame=625970 fps=4075 q=-1.0 size=12027648kB time=02:53:52.91 bitrate=9444.2kbits/s speed=67.9x    frame=627847 fps=4074 q=-1.0 size=12065024kB time=02:54:24.19 bitrate=9445.2kbits/s speed=67.9x    frame=630582 fps=4079 q=-1.0 size=12101632kB time=02:55:09.78 bitrate=9432.8kbits/s speed=  68x    frame=632682 fps=4079 q=-1.0 size=12142336kB time=02:55:44.78 bitrate=9433.1kbits/s speed=  68x    frame=634519 fps=4078 q=-1.0 size=12179456kB time=02:56:15.39 bitrate=9434.5kbits/s speed=  68x    frame=636681 fps=4079 q=-1.0 size=12219392kB time=02:56:51.43 bitrate=9433.3kbits/s speed=  68x    frame=638875 fps=4080 q=-1.0 size=12260096kB time=02:57:28.00 bitrate=9432.3kbits/s speed=  68x    frame=640868 fps=4079 q=-1.0 size=12300544kB time=02:58:01.21 bitrate=9434.0kbits/s speed=  68x    frame=643442 fps=4083 q=-1.0 size=12337664kB time=02:58:44.11 bitrate=9424.6kbits/s speed=  68x    frame=645513 fps=4083 q=-1.0 size=12371712kB time=02:59:18.63 bitrate=9420.3kbits/s speed=  68x    frame=647427 fps=4082 q=-1.0 size=12407552kB time=02:59:50.53 bitrate=9419.6kbits/s speed=  68x    frame=649774 fps=4084 q=-1.0 size=12443392kB time=03:00:29.64 bitrate=9412.7kbits/s speed=68.1x    frame=652668 fps=4089 q=-1.0 size=12480512kB time=03:01:17.89 bitrate=9398.9kbits/s speed=68.2x    frame=654639 fps=4089 q=-1.0 size=12518144kB time=03:01:50.74 bitrate=9398.9kbits/s speed=68.1x    frame=657643 fps=4095 q=-1.0 size=12558336kB time=03:02:40.81 bitrate=9386.0kbits/s speed=68.2x    frame=659671 fps=4095 q=-1.0 size=12595712kB time=03:03:14.59 bitrate=9385.0kbits/s speed=68.2x    frame=661884 fps=4096 q=-1.0 size=12636160kB time=03:03:51.49 bitrate=9383.6kbits/s speed=68.3x    frame=664446 fps=4099 q=-1.0 size=12676864kB time=03:04:34.18 bitrate=9377.6kbits/s speed=68.3x    frame=667849 fps=4107 q=-1.0 size=12716800kB time=03:05:30.89 bitrate=9359.2kbits/s speed=68.5x    frame=670088 fps=4108 q=-1.0 size=12758272kB time=03:06:08.21 bitrate=9358.3kbits/s speed=68.5x    frame=672211 fps=4109 q=-1.0 size=12798720kB time=03:06:43.60 bitrate=9358.3kbits/s speed=68.5x    frame=674370 fps=4109 q=-1.0 size=12838400kB time=03:07:19.58 bitrate=9357.3kbits/s speed=68.5x    frame=676946 fps=4112 q=-1.0 size=12880384kB time=03:08:02.51 bitrate=9352.2kbits/s speed=68.5x    frame=678967 fps=4112 q=-1.0 size=12918784kB time=03:08:36.20 bitrate=9352.1kbits/s speed=68.5x    frame=682093 fps=4119 q=-1.0 size=12959232kB time=03:09:28.30 bitrate=9338.4kbits/s speed=68.6x    frame=684164 fps=4119 q=-1.0 size=13000448kB time=03:10:02.81 bitrate=9339.8kbits/s speed=68.6x    frame=685912 fps=4117 q=-1.0 size=13034752kB time=03:10:31.95 bitrate=9340.5kbits/s speed=68.6x    frame=688115 fps=4118 q=-1.0 size=13076224kB time=03:11:08.67 bitrate=9340.3kbits/s speed=68.6x    frame=690153 fps=4118 q=-1.0 size=13116928kB time=03:11:42.63 bitrate=9341.7kbits/s speed=68.6x    frame=692247 fps=4118 q=-1.0 size=13158144kB time=03:12:17.53 bitrate=9342.7kbits/s speed=68.6x    frame=694307 fps=4118 q=-1.0 size=13199872kB time=03:12:51.86 bitrate=9344.5kbits/s speed=68.6x    frame=696190 fps=4117 q=-1.0 size=13236480kB time=03:13:23.24 bitrate=9345.1kbits/s speed=68.6x    frame=698203 fps=4116 q=-1.0 size=13276160kB time=03:13:56.80 bitrate=9346.1kbits/s speed=68.6x    frame=700407 fps=4117 q=-1.0 size=13317376kB time=03:14:33.53 bitrate=9345.6kbits/s speed=68.6x    frame=702325 fps=4116 q=-1.0 size=13353472kB time=03:15:05.49 bitrate=9345.3kbits/s speed=68.6x    frame=704939 fps=4120 q=-1.0 size=13394432kB time=03:15:49.07 bitrate=9339.2kbits/s speed=68.7x    frame=708066 fps=4126 q=-1.0 size=13432320kB time=03:16:41.18 bitrate=9324.3kbits/s speed=68.8x    frame=711288 fps=4133 q=-1.0 size=13470464kB time=03:17:34.89 bitrate=9308.4kbits/s speed=68.9x    frame=714112 fps=4137 q=-1.0 size=13510912kB time=03:18:21.95 bitrate=9299.4kbits/s speed=68.9x    frame=716161 fps=4137 q=-1.0 size=13545472kB time=03:18:56.10 bitrate=9296.5kbits/s speed=68.9x    frame=718062 fps=4136 q=-1.0 size=13580544kB time=03:19:27.78 bitrate=9295.9kbits/s speed=68.9x    frame=722002 fps=4147 q=-1.0 size=13614080kB time=03:20:33.44 bitrate=9268.0kbits/s speed=69.1x    frame=723986 fps=4146 q=-1.0 size=13648128kB time=03:21:06.51 bitrate=9265.8kbits/s speed=69.1x    frame=726047 fps=4146 q=-1.0 size=13682688kB time=03:21:40.86 bitrate=9262.9kbits/s speed=69.1x    frame=727885 fps=4145 q=-1.0 size=13717248kB time=03:22:11.49 bitrate=9262.8kbits/s speed=69.1x    frame=731195 fps=4152 q=-1.0 size=13752576kB time=03:23:06.66 bitrate=9244.6kbits/s speed=69.2x    frame=733270 fps=4152 q=-1.0 size=13789440kB time=03:23:41.24 bitrate=9243.2kbits/s speed=69.2x    frame=735433 fps=4152 q=-1.0 size=13830656kB time=03:24:17.29 bitrate=9243.5kbits/s speed=69.2x    frame=737572 fps=4152 q=-1.0 size=13871872kB time=03:24:52.95 bitrate=9244.2kbits/s speed=69.2x    frame=739593 fps=4152 q=-1.0 size=13908992kB time=03:25:26.63 bitrate=9243.6kbits/s speed=69.2x    frame=741837 fps=4153 q=-1.0 size=13951232kB time=03:26:04.03 bitrate=9243.6kbits/s speed=69.2x    frame=743958 fps=4153 q=-1.0 size=13989888kB time=03:26:39.38 bitrate=9242.8kbits/s speed=69.2x    frame=746419 fps=4155 q=-1.0 size=14032128kB time=03:27:20.39 bitrate=9240.2kbits/s speed=69.3x    frame=748672 fps=4156 q=-1.0 size=14073088kB time=03:27:57.94 bitrate=9239.2kbits/s speed=69.3x    frame=750841 fps=4157 q=-1.0 size=14112256kB time=03:28:34.09 bitrate=9238.2kbits/s speed=69.3x    frame=753436 fps=4160 q=-1.0 size=14155520kB time=03:29:17.34 bitrate=9234.6kbits/s speed=69.3x    frame=755565 fps=4160 q=-1.0 size=14198528kB time=03:29:52.83 bitrate=9236.6kbits/s speed=69.3x    frame=758420 fps=4164 q=-1.0 size=14236928kB time=03:30:40.41 bitrate=9226.7kbits/s speed=69.4x    frame=760915 fps=4167 q=-1.0 size=14278912kB time=03:31:21.99 bitrate=9223.5kbits/s speed=69.4x    frame=763036 fps=4167 q=-1.0 size=14318336kB time=03:31:57.35 bitrate=9223.3kbits/s speed=69.4x    frame=766099 fps=4172 q=-1.0 size=14359552kB time=03:32:48.39 bitrate=9212.9kbits/s speed=69.5x    frame=768297 fps=4173 q=-1.0 size=14401536kB time=03:33:25.03 bitrate=9213.4kbits/s speed=69.5x    frame=770458 fps=4173 q=-1.0 size=14439936kB time=03:34:01.04 bitrate=9212.0kbits/s speed=69.6x    frame=772867 fps=4175 q=-1.0 size=14482176kB time=03:34:41.19 bitrate=9210.2kbits/s speed=69.6x    frame=775447 fps=4177 q=-1.0 size=14526208kB time=03:35:24.19 bitrate=9207.4kbits/s speed=69.6x    frame=777801 fps=4179 q=-1.0 size=14564096kB time=03:36:03.43 bitrate=9203.5kbits/s speed=69.6x    frame=780054 fps=4180 q=-1.0 size=14606848kB time=03:36:40.98 bitrate=9203.9kbits/s speed=69.7x    frame=782136 fps=4180 q=-1.0 size=14646784kB time=03:37:15.69 bitrate=9204.5kbits/s speed=69.7x    frame=784648 fps=4182 q=-1.0 size=14690560kB time=03:37:57.54 bitrate=9202.4kbits/s speed=69.7x    frame=786907 fps=4183 q=-1.0 size=14732288kB time=03:38:35.19 bitrate=9202.1kbits/s speed=69.7x    frame=789203 fps=4184 q=-1.0 size=14774528kB time=03:39:13.46 bitrate=9201.6kbits/s speed=69.7x    frame=791419 fps=4184 q=-1.0 size=14815744kB time=03:39:50.39 bitrate=9201.4kbits/s speed=69.7x    frame=793513 fps=4185 q=-1.0 size=14854656kB time=03:40:25.29 bitrate=9201.3kbits/s speed=69.7x    frame=795570 fps=4184 q=-1.0 size=14893056kB time=03:40:59.58 bitrate=9201.2kbits/s speed=69.7x    frame=797957 fps=4186 q=-1.0 size=14936576kB time=03:41:39.36 bitrate=9200.5kbits/s speed=69.8x    frame=800073 fps=4186 q=-1.0 size=14976768kB time=03:42:14.63 bitrate=9200.8kbits/s speed=69.8x    frame=802208 fps=4186 q=-1.0 size=15015936kB time=03:42:50.22 bitrate=9200.3kbits/s speed=69.8x    frame=804417 fps=4187 q=-1.0 size=15057920kB time=03:43:27.04 bitrate=9200.7kbits/s speed=69.8x    frame=806575 fps=4187 q=-1.0 size=15098624kB time=03:44:02.99 bitrate=9200.9kbits/s speed=69.8x    frame=808982 fps=4189 q=-1.0 size=15140864kB time=03:44:43.11 bitrate=9199.2kbits/s speed=69.8x    frame=811199 fps=4189 q=-1.0 size=15182592kB time=03:45:20.06 bitrate=9199.3kbits/s speed=69.8x    frame=813397 fps=4190 q=-1.0 size=15224320kB time=03:45:56.69 bitrate=9199.7kbits/s speed=69.8x    frame=815688 fps=4191 q=-1.0 size=15266560kB time=03:46:34.88 bitrate=9199.3kbits/s speed=69.8x    frame=818022 fps=4192 q=-1.0 size=15309056kB time=03:47:13.78 bitrate=9198.6kbits/s speed=69.9x    frame=819977 fps=4191 q=-1.0 size=15345920kB time=03:47:46.36 bitrate=9198.8kbits/s speed=69.9x    frame=822122 fps=4192 q=-1.0 size=15386880kB time=03:48:22.11 bitrate=9199.3kbits/s speed=69.9x    frame=824372 fps=4192 q=-1.0 size=15427584kB time=03:48:59.62 bitrate=9198.4kbits/s speed=69.9x    frame=826263 fps=4191 q=-1.0 size=15463680kB time=03:49:31.13 bitrate=9198.8kbits/s speed=69.9x    frame=828465 fps=4192 q=-1.0 size=15506176kB time=03:50:07.83 bitrate=9199.6kbits/s speed=69.9x    frame=830386 fps=4191 q=-1.0 size=15543296kB time=03:50:39.84 bitrate=9200.3kbits/s speed=69.9x    frame=832515 fps=4191 q=-1.0 size=15584512kB time=03:51:15.33 bitrate=9201.1kbits/s speed=69.9x    frame=834784 fps=4192 q=-1.0 size=15625472kB time=03:51:53.14 bitrate=9200.2kbits/s speed=69.9x    frame=837195 fps=4194 q=-1.0 size=15661824kB time=03:52:33.34 bitrate=9195.0kbits/s speed=69.9x    frame=839392 fps=4194 q=-1.0 size=15703296kB time=03:53:09.94 bitrate=9195.3kbits/s speed=69.9x    frame=841619 fps=4195 q=-1.0 size=15744256kB time=03:53:47.06 bitrate=9194.9kbits/s speed=69.9x    frame=843551 fps=4194 q=-1.0 size=15781888kB time=03:54:19.26 bitrate=9195.7kbits/s speed=69.9x    frame=845705 fps=4194 q=-1.0 size=15822592kB time=03:54:55.16 bitrate=9196.0kbits/s speed=69.9x    frame=847539 fps=4193 q=-1.0 size=15856896kB time=03:55:25.73 bitrate=9196.0kbits/s speed=69.9x    frame=849635 fps=4193 q=-1.0 size=15895296kB time=03:56:00.66 bitrate=9195.5kbits/s speed=69.9x    frame=851765 fps=4193 q=-1.0 size=15936768kB time=03:56:36.16 bitrate=9196.4kbits/s speed=69.9x    frame=854053 fps=4194 q=-1.0 size=15977984kB time=03:57:14.29 bitrate=9195.5kbits/s speed=69.9x    frame=856196 fps=4194 q=-1.0 size=16018688kB time=03:57:50.01 bitrate=9195.9kbits/s speed=69.9x    frame=858328 fps=4194 q=-1.0 size=16058880kB time=03:58:25.55 bitrate=9196.0kbits/s speed=69.9x    frame=860322 fps=4194 q=-1.0 size=16096256kB time=03:58:58.78 bitrate=9196.1kbits/s speed=69.9x    frame=862651 fps=4195 q=-1.0 size=16138752kB time=03:59:37.59 bitrate=9195.5kbits/s speed=69.9x    frame=864754 fps=4195 q=-1.0 size=16178432kB time=04:00:12.64 bitrate=9195.7kbits/s speed=69.9x    frame=866839 fps=4195 q=-1.0 size=16217856kB time=04:00:47.40 bitrate=9195.9kbits/s speed=69.9x    frame=868913 fps=4195 q=-1.0 size=16257792kB time=04:01:21.96 bitrate=9196.5kbits/s speed=69.9x    frame=870868 fps=4194 q=-1.0 size=16294144kB time=04:01:54.56 bitrate=9196.4kbits/s speed=69.9x    frame=872992 fps=4194 q=-1.0 size=16334080kB time=04:02:29.94 bitrate=9196.5kbits/s speed=69.9x    frame=875292 fps=4195 q=-1.0 size=16376832kB time=04:03:08.29 bitrate=9196.3kbits/s speed=69.9x    frame=878303 fps=4199 q=-1.0 size=16412416kB time=04:03:58.46 bitrate=9184.7kbits/s speed=  70x    frame=880633 fps=4201 q=-1.0 size=16453632kB time=04:04:37.29 bitrate=9183.4kbits/s speed=  70x    frame=882696 fps=4200 q=-1.0 size=16493056kB time=04:05:11.68 bitrate=9183.9kbits/s speed=  70x    frame=884742 fps=4200 q=-1.0 size=16531968kB time=04:05:45.78 bitrate=9184.3kbits/s speed=  70x    frame=887608 fps=4204 q=-1.0 size=16571136kB time=04:06:33.55 bitrate=9176.3kbits/s speed=70.1x    frame=889523 fps=4203 q=-1.0 size=16608512kB time=04:07:05.47 bitrate=9177.2kbits/s speed=  70x    frame=891452 fps=4202 q=-1.0 size=16646656kB time=04:07:37.62 bitrate=9178.4kbits/s speed=  70x    frame=893557 fps=4202 q=-1.0 size=16686848kB time=04:08:12.69 bitrate=9178.9kbits/s speed=  70x    frame=895648 fps=4202 q=-1.0 size=16725248kB time=04:08:47.54 bitrate=9178.5kbits/s speed=  70x    frame=897696 fps=4202 q=-1.0 size=16764928kB time=04:09:21.68 bitrate=9179.3kbits/s speed=  70x    frame=899942 fps=4202 q=-1.0 size=16804352kB time=04:09:59.12 bitrate=9178.0kbits/s speed=  70x    frame=901856 fps=4201 q=-1.0 size=16841216kB time=04:10:31.01 bitrate=9178.6kbits/s speed=  70x    frame=904024 fps=4202 q=-1.0 size=16881408kB time=04:11:07.14 bitrate=9178.4kbits/s speed=  70x    frame=905977 fps=4201 q=-1.0 size=16919808kB time=04:11:39.69 bitrate=9179.5kbits/s speed=  70x    frame=907924 fps=4200 q=-1.0 size=16957952kB time=04:12:12.16 bitrate=9180.4kbits/s speed=  70x    frame=911033 fps=4205 q=-1.0 size=16998400kB time=04:13:03.96 bitrate=9170.9kbits/s speed=70.1x    frame=913251 fps=4206 q=-1.0 size=17036288kB time=04:13:40.93 bitrate=9169.0kbits/s speed=70.1x    frame=915857 fps=4208 q=-1.0 size=17076736kB time=04:14:24.36 bitrate=9164.7kbits/s speed=70.1x    frame=919313 fps=4214 q=-1.0 size=17116160kB time=04:15:21.96 bitrate=9151.3kbits/s speed=70.2x    frame=921560 fps=4215 q=-1.0 size=17152768kB time=04:15:59.42 bitrate=9148.5kbits/s speed=70.2x    frame=923629 fps=4215 q=-1.0 size=17194240kB time=04:16:33.90 bitrate=9150.1kbits/s speed=70.2x    frame=925596 fps=4214 q=-1.0 size=17234944kB time=04:17:06.68 bitrate=9152.2kbits/s speed=70.2x    frame=929160 fps=4220 q=-1.0 size=17272320kB time=04:18:06.08 bitrate=9136.9kbits/s speed=70.3x    frame=931251 fps=4220 q=-1.0 size=17313024kB time=04:18:40.93 bitrate=9137.9kbits/s speed=70.3x    frame=933402 fps=4221 q=-1.0 size=17351168kB time=04:19:16.78 bitrate=9136.9kbits/s speed=70.3x    frame=935547 fps=4221 q=-1.0 size=17390848kB time=04:19:52.53 bitrate=9136.8kbits/s speed=70.3x    frame=937829 fps=4221 q=-1.0 size=17430784kB time=04:20:30.57 bitrate=9135.5kbits/s speed=70.4x    frame=940008 fps=4222 q=-1.0 size=17468928kB time=04:21:06.88 bitrate=9134.3kbits/s speed=70.4x    frame=943081 fps=4226 q=-1.0 size=17508608kB time=04:21:58.10 bitrate=9125.2kbits/s speed=70.4x    frame=945377 fps=4227 q=-1.0 size=17550336kB time=04:22:36.37 bitrate=9124.7kbits/s speed=70.4x    frame=947341 fps=4226 q=-1.0 size=17589760kB time=04:23:09.10 bitrate=9126.3kbits/s speed=70.4x    frame=949542 fps=4227 q=-1.0 size=17631488kB time=04:23:45.78 bitrate=9126.7kbits/s speed=70.4x    frame=951681 fps=4227 q=-1.0 size=17671168kB time=04:24:21.43 bitrate=9126.7kbits/s speed=70.4x    frame=954203 fps=4229 q=-1.0 size=17712128kB time=04:25:03.46 bitrate=9123.7kbits/s speed=70.5x    frame=956425 fps=4229 q=-1.0 size=17753600kB time=04:25:40.49 bitrate=9123.8kbits/s speed=70.5x    frame=958461 fps=4229 q=-1.0 size=17792000kB time=04:26:14.44 bitrate=9124.1kbits/s speed=70.5x    frame=960545 fps=4229 q=-1.0 size=17831680kB time=04:26:49.17 bitrate=9124.6kbits/s speed=70.5x    frame=962715 fps=4229 q=-1.0 size=17873664kB time=04:27:25.33 bitrate=9125.5kbits/s speed=70.5x    frame=966377 fps=4236 q=-1.0 size=17910272kB time=04:28:26.36 bitrate=9109.5kbits/s speed=70.6x    frame=970441 fps=4244 q=-1.0 size=17948672kB time=04:29:34.09 bitrate=9090.8kbits/s speed=70.7x    frame=974488 fps=4252 q=-1.0 size=17987840kB time=04:30:41.55 bitrate=9072.8kbits/s speed=70.9x    frame=978735 fps=4262 q=-1.0 size=18025984kB time=04:31:52.33 bitrate=9052.6kbits/s speed=  71x    frame=981599 fps=4265 q=-1.0 size=18066176kB time=04:32:40.06 bitrate=9046.3kbits/s speed=71.1x    frame=984640 fps=4269 q=-1.0 size=18105600kB time=04:33:30.75 bitrate=9038.0kbits/s speed=71.1x    frame=987667 fps=4273 q=-1.0 size=18143744kB time=04:34:21.20 bitrate=9029.3kbits/s speed=71.2x    frame=990874 fps=4277 q=-1.0 size=18181632kB time=04:35:14.64 bitrate=9018.9kbits/s speed=71.3x    frame=993939 fps=4281 q=-1.0 size=18221568kB time=04:36:05.73 bitrate=9010.8kbits/s speed=71.4x    frame=996345 fps=4282 q=-1.0 size=18263552kB time=04:36:45.83 bitrate=9009.8kbits/s speed=71.4x    frame=998588 fps=4283 q=-1.0 size=18302464kB time=04:37:23.21 bitrate=9008.7kbits/s speed=71.4x    frame=1001284 fps=4285 q=-1.0 size=18345728kB time=04:38:08.14 bitrate=9005.7kbits/s speed=71.4x    frame=1003551 fps=4286 q=-1.0 size=18386688kB time=04:38:45.93 bitrate=9005.4kbits/s speed=71.4x    frame=1005977 fps=4287 q=-1.0 size=18430208kB time=04:39:26.36 bitrate=9004.9kbits/s speed=71.4x    frame=1008248 fps=4287 q=-1.0 size=18471424kB time=04:40:04.21 bitrate=9004.8kbits/s speed=71.5x    frame=1010474 fps=4288 q=-1.0 size=18511360kB time=04:40:41.32 bitrate=9004.3kbits/s speed=71.5x    frame=1012822 fps=4289 q=-1.0 size=18553344kB time=04:41:20.45 bitrate=9003.8kbits/s speed=71.5x    frame=1015015 fps=4289 q=-1.0 size=18596096kB time=04:41:56.99 bitrate=9005.1kbits/s speed=71.5x    frame=1017261 fps=4289 q=-1.0 size=18636032kB time=04:42:34.43 bitrate=9004.5kbits/s speed=71.5x    frame=1020251 fps=4293 q=-1.0 size=18678016kB time=04:43:24.26 bitrate=8998.3kbits/s speed=71.5x    frame=1022749 fps=4294 q=-1.0 size=18716928kB time=04:44:05.91 bitrate=8995.1kbits/s speed=71.6x    frame=1024995 fps=4295 q=-1.0 size=18757632kB time=04:44:43.33 bitrate=8994.9kbits/s speed=71.6x    frame=1027557 fps=4296 q=-1.0 size=18799104kB time=04:45:26.03 bitrate=8992.3kbits/s speed=71.6x    frame=1030610 fps=4300 q=-1.0 size=18838784kB time=04:46:16.91 bitrate=8984.6kbits/s speed=71.7x    frame=1033347 fps=4303 q=-1.0 size=18878720kB time=04:47:02.53 bitrate=8979.8kbits/s speed=71.7x    frame=1035794 fps=4304 q=-1.0 size=18921216kB time=04:47:43.31 bitrate=8978.7kbits/s speed=71.7x    frame=1037777 fps=4303 q=-1.0 size=18959872kB time=04:48:16.36 bitrate=8979.9kbits/s speed=71.7x    frame=1039953 fps=4303 q=-1.0 size=19002368kB time=04:48:52.63 bitrate=8981.2kbits/s speed=71.7x    frame=1041909 fps=4302 q=-1.0 size=19042816kB time=04:49:25.23 bitrate=8983.4kbits/s speed=71.7x    frame=1045152 fps=4307 q=-1.0 size=19084288kB time=04:50:19.28 bitrate=8975.0kbits/s speed=71.8x    frame=1047931 fps=4310 q=-1.0 size=19125504kB time=04:51:05.60 bitrate=8970.6kbits/s speed=71.8x    frame=1050349 fps=4311 q=-1.0 size=19164928kB time=04:51:45.89 bitrate=8968.4kbits/s speed=71.8x    frame=1052748 fps=4312 q=-1.0 size=19204352kB time=04:52:25.88 bitrate=8966.3kbits/s speed=71.9x    frame=1055430 fps=4314 q=-1.0 size=19246080kB time=04:53:10.59 bitrate=8963.0kbits/s speed=71.9x    frame=1057822 fps=4315 q=-1.0 size=19285248kB time=04:53:50.44 bitrate=8960.9kbits/s speed=71.9x    frame=1060568 fps=4317 q=-1.0 size=19326976kB time=04:54:36.21 bitrate=8957.0kbits/s speed=  72x    frame=1062916 fps=4318 q=-1.0 size=19367168kB time=04:55:15.35 bitrate=8955.8kbits/s speed=  72x    frame=1065387 fps=4319 q=-1.0 size=19408896kB time=04:55:56.53 bitrate=8954.3kbits/s speed=  72x    frame=1067857 fps=4320 q=-1.0 size=19450112kB time=04:56:37.69 bitrate=8952.6kbits/s speed=  72x    frame=1070810 fps=4324 q=-1.0 size=19489536kB time=04:57:26.91 bitrate=8946.0kbits/s speed=72.1x    frame=1073755 fps=4327 q=-1.0 size=19528960kB time=04:58:15.99 bitrate=8939.5kbits/s speed=72.1x    frame=1077419 fps=4333 q=-1.0 size=19566336kB time=04:59:17.06 bitrate=8926.1kbits/s speed=72.2x    frame=1079587 fps=4333 q=-1.0 size=19606272kB time=04:59:53.19 bitrate=8926.4kbits/s speed=72.2x    frame=1082356 fps=4335 q=-1.0 size=19647744kB time=05:00:39.34 bitrate=8922.4kbits/s speed=72.3x    frame=1085512 fps=4339 q=-1.0 size=19684352kB time=05:01:31.94 bitrate=8913.0kbits/s speed=72.3x    frame=1087694 fps=4339 q=-1.0 size=19725568kB time=05:02:08.32 bitrate=8913.8kbits/s speed=72.3x    frame=1089723 fps=4339 q=-1.0 size=19765504kB time=05:02:42.13 bitrate=8915.2kbits/s speed=72.3x    frame=1093371 fps=4344 q=-1.0 size=19805696kB time=05:03:42.93 bitrate=8903.5kbits/s speed=72.4x    frame=1095475 fps=4344 q=-1.0 size=19845888kB time=05:04:17.99 bitrate=8904.5kbits/s speed=72.4x    frame=1099684 fps=4352 q=-1.0 size=19884800kB time=05:05:28.14 bitrate=8887.8kbits/s speed=72.5x    frame=1104372 fps=4362 q=-1.0 size=19920896kB time=05:06:46.29 bitrate=8866.1kbits/s speed=72.7x    frame=1105194 fps=4364 q=-1.0 Lsize=19927347kB time=05:06:59.99 bitrate=8862.4kbits/s speed=72.7x    
video:19447962kB audio:442381kB subtitle:0kB other streams:0kB global headers:0kB muxing overhead: 0.186042%
